<?xml version="1.0" encoding="utf-8"?>
<!-- Generator: Adobe Illustrator 22.0.0, SVG Export Plug-In . SVG Version: 6.00 Build 0)  -->
<svg version="1.1" id="Layer_1" xmlns="http://www.w3.org/2000/svg" xmlns:xlink="http://www.w3.org/1999/xlink" x="0px" y="0px"
	 viewBox="0 0 332.8 324.9" style="enable-background:new 0 0 332.8 324.9;" xml:space="preserve">
<style type="text/css">
	.st0{fill:#FFFFFF;}
</style>
<path class="st0" d="M65.6,132.7c-0.4,13.8,2.3,27.3,4.8,40.8c0.1,0.5,0.2,0.9,0.3,1.4c0.4,2.2,1.5,5.1-1.2,5.9
	c-2.8,0.9-4.3-1.9-5.3-4.2c-2.4-5.9-3.1-12.1-4.1-18.3c-2.2-13.1-3.4-26.3-2.8-39.6c1-26.1,4.7-51.6,16.9-75.2
	c3.2-6.2,7.2-12,12.4-16.7c13.5-12.1,32.7-12.2,47.1,0.4c10.8,9.4,18,21.3,24.1,33.9c6.8,13.9,12.7,28.3,16.7,43.3
	c4,14.8,6.4,29.9,5,45.2c-0.5,5.6,0.7,9,6,12.1c18.6,11,32.9,26.1,41.3,46.3c0.6,1.3,0.9,2.9,3.1,2.7c15.4-1.8,30.9-3.1,45.4-9.1
	c4.7-2,9.1-4.5,12.5-8.4c5.4-6.1,6-12.9,3.1-20.2c-3.1-7.8-8.8-13.9-14.1-20.3c-21.9-26.4-50.4-42.4-82.4-53.1
	c-1.3-0.5-2.7-0.9-4-1.5c-1.2-0.6-2.1-1.6-1.7-3.1c0.4-1.4,1.6-1.6,2.8-1.7c2.9-0.1,5.7,0.3,8.4,1.1c22.6,6.4,43,17,62.1,30.5
	c16.3,11.5,30.3,25.2,42.1,41.4c6.8,9.3,11.1,19.6,10.6,31.3c-0.6,15.1-9.2,24.4-22.8,29.3c-13.2,4.8-27,5.3-40.9,4.8
	c-14.6-0.6-28.9-2.7-43.1-6c-18.5-4.2-36.1-10.6-51.5-21.8c-1.8-1.3-3.1-1.3-5-0.1c-15.3,9.6-32,14.5-50,15c-4.5,0.1-9,0-13.4-0.3
	c-2.7-0.1-4.2,0.5-5.5,3.1c-6.9,14.1-12.5,28.7-13.8,44.5c-0.8,10.2,2,19.7,11,23.8c4.5,2.1,9.4,2.2,14.3,2.1
	c18-0.2,34.7-5.5,50.9-12.7c17.3-7.7,33-17.9,47.5-30c1.6-1.4,3-3,4.5-4.5c1-1,2.1-1.9,3.5-2.4c1.1-0.4,2.4-0.8,3.4,0.1
	c0.9,0.9,0.5,2.2,0.1,3.3c-0.9,2.6-2.6,4.8-4.7,6.5c-14.9,12.7-30.3,24.5-47.8,33.6c-18.2,9.5-37.4,16-57.6,19.1
	c-10.9,1.7-21.9,2.1-32.7-0.9c-14.1-3.9-22.4-14.3-23.2-29.1c-0.6-11.8,3-22.4,8.2-32.6c10.5-20.3,23.5-38.8,40.2-54.6
	c12-11.4,25.3-21,40.4-27.9c1.4-0.6,2.2-1.4,2.1-3.2c-0.6-18.3,2.9-35.7,11-52.2c2.3-4.7,4.9-9.2,8.9-12.7c1.5-1.3,1.5-2.5,0.5-4
	c-9.9-14.3-21.2-27.3-35.5-37.3c-10.4-7.3-21.6-5.1-28.7,5.3c-6.7,9.8-10.3,21-13.4,32.3C67.5,102.5,65.3,117.5,65.6,132.7z
	 M154.3,97.5c-0.5,0.6-0.8,1-1.2,1.4c-0.6,0.9-1.2,1.8-1.8,2.7c-9.7,15.5-14.6,32.4-15.2,50.6c-0.1,2.3,0.6,2.8,2.9,2.4
	c9.7-1.6,19.4-2.9,29.2-0.5c1.9,0.5,2.6-0.2,2.4-2.2c-0.8-7-1.2-14.1-2.7-21.1C165.5,119,161.5,107.7,154.3,97.5z M219,211.1
	c-8.4-19-20.8-33.5-38.7-43.2c-1.8-1-2.9-1.2-3.5,1.2c-2.4,9.2-7.2,17.2-13.2,24.4c-1.9,2.4-1.2,3.1,1.1,4.3
	c8.9,4.5,18.1,8.1,27.8,10.2C201.1,210,209.7,211.4,219,211.1z M88.6,210.3c7.2,0.4,14,0.2,20.8-0.6c12.7-1.6,24.7-5.1,35.7-11.7
	c2-1.2,2.3-2,0.5-3.9c-6.8-6.6-11.3-14.8-14.6-23.6c-0.9-2.4-1.7-2.8-3.9-1.3c-9.7,6.6-18.8,14-26.4,23
	C96.1,197.6,91.8,203.3,88.6,210.3z M154.5,160c-4.8-0.2-9.4,0.8-13.9,2.2c-2.2,0.7-3,1.9-2.5,4.2c2.1,9.7,6.6,17.8,14.8,23.8
	c1.4,1,2.2,0.8,3.3-0.3c7.2-6.7,12.1-14.6,13.7-24.5c0.3-1.8-0.2-2.7-1.9-3.2C163.7,160.8,159.2,159.8,154.5,160z"/>
</svg>
